<svg width="14" height="15" viewBox="0 0 14 15" fill="none" xmlns="http://www.w3.org/2000/svg">
<path d="M0.995951 13.51C0.955952 13.63 0.935952 13.7567 0.935952 13.89C0.935952 14.1567 1.02929 14.3767 1.21595 14.55C1.38929 14.7233 1.59595 14.81 1.83595 14.81C2.02262 14.81 2.19595 14.7567 2.35595 14.65C2.50262 14.53 2.62262 14.37 2.71595 14.17L3.95595 11.23L10.136 11.23L11.356 14.19C11.4226 14.39 11.536 14.5433 11.696 14.65C11.8426 14.7567 12.0093 14.81 12.196 14.81C12.476 14.81 12.6893 14.7367 12.836 14.59C12.9826 14.4433 13.056 14.2433 13.056 13.99C13.056 13.9367 13.0426 13.83 13.016 13.67L7.91595 1.31C7.82262 1.09666 7.69595 0.936664 7.53595 0.829998C7.36262 0.709998 7.16929 0.663331 6.95595 0.689998C6.75595 0.689998 6.57595 0.743331 6.41595 0.849997C6.25595 0.956664 6.14262 1.11 6.07595 1.31L0.995951 13.51ZM4.71595 9.41L7.05595 3.81L9.37595 9.41L4.71595 9.41Z" fill="white"/>
</svg>
