<svg width="88" height="11" viewBox="0 0 88 11" fill="none" xmlns="http://www.w3.org/2000/svg">
<path d="M8.87299 10.75H7.6015L6.56244 8.00195H2.40619L1.42865 10.75H0.15033L3.9101 0.947266H5.09955L8.87299 10.75ZM6.18646 6.96973L4.64838 2.79297C4.59825 2.65625 4.54812 2.4375 4.49799 2.13672H4.47064C4.42507 2.41471 4.37266 2.63346 4.31342 2.79297L2.789 6.96973H6.18646ZM16.1464 10.75H15.0253V9.56055H14.998C14.4785 10.4629 13.6764 10.9141 12.5917 10.9141C11.7122 10.9141 11.0081 10.6019 10.4794 9.97754C9.95534 9.34863 9.6933 8.49414 9.6933 7.41406C9.6933 6.25651 9.98497 5.3291 10.5683 4.63184C11.1516 3.93457 11.9286 3.58594 12.8994 3.58594C13.8609 3.58594 14.5605 3.96419 14.998 4.7207H15.0253V0.386719H16.1464V10.75ZM15.0253 7.58496V6.55273C15.0253 5.98763 14.8385 5.50911 14.4648 5.11719C14.0911 4.72526 13.6171 4.5293 13.0429 4.5293C12.3593 4.5293 11.8216 4.77995 11.4296 5.28125C11.0377 5.78255 10.8417 6.47526 10.8417 7.35938C10.8417 8.16602 11.0286 8.80404 11.4023 9.27344C11.7805 9.73828 12.2864 9.9707 12.9199 9.9707C13.5442 9.9707 14.0501 9.74512 14.4374 9.29395C14.8294 8.84277 15.0253 8.27311 15.0253 7.58496ZM28.3554 10.75H27.2343V6.73047C27.2343 5.95573 27.1135 5.39518 26.872 5.04883C26.635 4.70247 26.234 4.5293 25.6689 4.5293C25.1904 4.5293 24.7825 4.74805 24.4453 5.18555C24.1126 5.62305 23.9462 6.14714 23.9462 6.75781V10.75H22.8251V6.59375C22.8251 5.21745 22.2942 4.5293 21.2324 4.5293C20.7402 4.5293 20.3346 4.73665 20.0156 5.15137C19.6966 5.56152 19.537 6.09701 19.537 6.75781V10.75H18.416V3.75H19.537V4.85742H19.5644C20.0611 4.00977 20.7857 3.58594 21.7382 3.58594C22.2167 3.58594 22.6337 3.72038 22.9892 3.98926C23.3447 4.25358 23.5885 4.60221 23.7206 5.03516C24.2402 4.06901 25.0149 3.58594 26.0449 3.58594C27.5852 3.58594 28.3554 4.53613 28.3554 6.43652V10.75ZM31.0488 1.97266C30.8482 1.97266 30.6773 1.9043 30.5361 1.76758C30.3948 1.63086 30.3242 1.45768 30.3242 1.24805C30.3242 1.03841 30.3948 0.865234 30.5361 0.728516C30.6773 0.58724 30.8482 0.516602 31.0488 0.516602C31.2538 0.516602 31.427 0.58724 31.5683 0.728516C31.7141 0.865234 31.787 1.03841 31.787 1.24805C31.787 1.44857 31.7141 1.61947 31.5683 1.76074C31.427 1.90202 31.2538 1.97266 31.0488 1.97266ZM31.5956 10.75H30.4745V3.75H31.5956V10.75ZM39.6757 10.75H38.5546V6.75781C38.5546 5.27214 38.0123 4.5293 36.9277 4.5293C36.3671 4.5293 35.9023 4.74121 35.5331 5.16504C35.1686 5.58431 34.9863 6.11523 34.9863 6.75781V10.75H33.8652V3.75H34.9863V4.91211H35.0136C35.5423 4.02799 36.3079 3.58594 37.3105 3.58594C38.0761 3.58594 38.6617 3.83431 39.0673 4.33105C39.4729 4.82324 39.6757 5.53646 39.6757 6.4707V10.75ZM42.3691 1.97266C42.1686 1.97266 41.9977 1.9043 41.8564 1.76758C41.7151 1.63086 41.6445 1.45768 41.6445 1.24805C41.6445 1.03841 41.7151 0.865234 41.8564 0.728516C41.9977 0.58724 42.1686 0.516602 42.3691 0.516602C42.5742 0.516602 42.7473 0.58724 42.8886 0.728516C43.0344 0.865234 43.1074 1.03841 43.1074 1.24805C43.1074 1.44857 43.0344 1.61947 42.8886 1.76074C42.7473 1.90202 42.5742 1.97266 42.3691 1.97266ZM42.916 10.75H41.7949V3.75H42.916V10.75ZM44.7617 10.4971V9.29395C45.3723 9.74512 46.0445 9.9707 46.7783 9.9707C47.7626 9.9707 48.2548 9.64258 48.2548 8.98633C48.2548 8.79948 48.2115 8.64225 48.1249 8.51465C48.0429 8.38249 47.929 8.26628 47.7831 8.16602C47.6419 8.06576 47.4732 7.97689 47.2773 7.89941C47.0859 7.81738 46.8785 7.73307 46.6552 7.64648C46.3453 7.52344 46.0719 7.40039 45.8349 7.27734C45.6025 7.14974 45.4065 7.00846 45.247 6.85352C45.0921 6.69401 44.9736 6.514 44.8915 6.31348C44.8141 6.11296 44.7753 5.87826 44.7753 5.60938C44.7753 5.28125 44.8505 4.99186 45.0009 4.74121C45.1513 4.486 45.3518 4.27409 45.6025 4.10547C45.8531 3.93229 46.138 3.80241 46.457 3.71582C46.7805 3.62923 47.1132 3.58594 47.455 3.58594C48.0611 3.58594 48.6035 3.69076 49.082 3.90039V5.03516C48.567 4.69792 47.9745 4.5293 47.3046 4.5293C47.095 4.5293 46.9059 4.55436 46.7372 4.60449C46.5686 4.65007 46.4228 4.71615 46.2997 4.80273C46.1813 4.88932 46.0878 4.99414 46.0195 5.11719C45.9557 5.23568 45.9238 5.36784 45.9238 5.51367C45.9238 5.69596 45.9557 5.84863 46.0195 5.97168C46.0878 6.09473 46.1858 6.2041 46.3134 6.2998C46.441 6.39551 46.596 6.4821 46.7783 6.55957C46.9606 6.63704 47.1679 6.72135 47.4003 6.8125C47.7102 6.93099 47.9882 7.05404 48.2343 7.18164C48.4804 7.30469 48.69 7.44596 48.8632 7.60547C49.0364 7.76042 49.1686 7.94043 49.2597 8.14551C49.3554 8.35059 49.4033 8.5944 49.4033 8.87695C49.4033 9.22331 49.3258 9.52409 49.1708 9.7793C49.0204 10.0345 48.8176 10.2464 48.5624 10.415C48.3072 10.5837 48.0133 10.709 47.6806 10.791C47.3479 10.873 46.9993 10.9141 46.6347 10.9141C45.9147 10.9141 45.2903 10.7751 44.7617 10.4971ZM54.3798 10.6816C54.1155 10.8275 53.7669 10.9004 53.3339 10.9004C52.108 10.9004 51.4951 10.2168 51.4951 8.84961V4.70703H50.2919V3.75H51.4951V2.04102L52.6161 1.67871V3.75H54.3798V4.70703H52.6161V8.65137C52.6161 9.12077 52.6959 9.45573 52.8554 9.65625C53.0149 9.85677 53.2792 9.95703 53.6484 9.95703C53.9309 9.95703 54.1747 9.87956 54.3798 9.72461V10.6816ZM59.5273 4.88477C59.3313 4.73438 59.0488 4.65918 58.6796 4.65918C58.2011 4.65918 57.8001 4.88477 57.4765 5.33594C57.1575 5.78711 56.998 6.40234 56.998 7.18164V10.75H55.8769V3.75H56.998V5.19238H57.0253C57.1848 4.7002 57.4286 4.31738 57.7568 4.04395C58.0849 3.76595 58.4518 3.62695 58.8574 3.62695C59.149 3.62695 59.3723 3.65885 59.5273 3.72266V4.88477ZM65.7548 10.75H64.6337V9.65625H64.6064C64.1188 10.4948 63.401 10.9141 62.4531 10.9141C61.7558 10.9141 61.2089 10.7295 60.8124 10.3604C60.4205 9.99121 60.2245 9.5013 60.2245 8.89062C60.2245 7.58268 60.9947 6.82161 62.5351 6.60742L64.6337 6.31348C64.6337 5.12402 64.1529 4.5293 63.1913 4.5293C62.3482 4.5293 61.5872 4.81641 60.9081 5.39062V4.24219C61.5963 3.80469 62.3893 3.58594 63.287 3.58594C64.9322 3.58594 65.7548 4.45638 65.7548 6.19727V10.75ZM64.6337 7.20898L62.9453 7.44141C62.4257 7.51432 62.0338 7.64421 61.7695 7.83105C61.5051 8.01335 61.373 8.33919 61.373 8.80859C61.373 9.15039 61.4938 9.43066 61.7353 9.64941C61.9814 9.86361 62.3072 9.9707 62.7128 9.9707C63.2688 9.9707 63.7268 9.77702 64.0869 9.38965C64.4514 8.99772 64.6337 8.50326 64.6337 7.90625V7.20898ZM73.8417 10.75H72.7206V9.56055H72.6933C72.1738 10.4629 71.3717 10.9141 70.287 10.9141C69.4075 10.9141 68.7034 10.6019 68.1747 9.97754C67.6507 9.34863 67.3886 8.49414 67.3886 7.41406C67.3886 6.25651 67.6803 5.3291 68.2636 4.63184C68.8469 3.93457 69.624 3.58594 70.5947 3.58594C71.5563 3.58594 72.2558 3.96419 72.6933 4.7207H72.7206V0.386719H73.8417V10.75ZM72.7206 7.58496V6.55273C72.7206 5.98763 72.5338 5.50911 72.1601 5.11719C71.7864 4.72526 71.3124 4.5293 70.7382 4.5293C70.0546 4.5293 69.5169 4.77995 69.1249 5.28125C68.733 5.78255 68.537 6.47526 68.537 7.35938C68.537 8.16602 68.7239 8.80404 69.0976 9.27344C69.4759 9.73828 69.9817 9.9707 70.6152 9.9707C71.2395 9.9707 71.7454 9.74512 72.1328 9.29395C72.5247 8.84277 72.7206 8.27311 72.7206 7.58496ZM79.037 10.9141C78.0025 10.9141 77.1754 10.5882 76.5556 9.93652C75.9404 9.28027 75.6328 8.41211 75.6328 7.33203C75.6328 6.15625 75.954 5.23796 76.5966 4.57715C77.2392 3.91634 78.1074 3.58594 79.2011 3.58594C80.2447 3.58594 81.0582 3.90723 81.6415 4.5498C82.2294 5.19238 82.5234 6.08333 82.5234 7.22266C82.5234 8.33919 82.2066 9.2347 81.5732 9.90918C80.9443 10.5791 80.0989 10.9141 79.037 10.9141ZM79.1191 4.5293C78.399 4.5293 77.8294 4.77539 77.4101 5.26758C76.9908 5.75521 76.7812 6.42969 76.7812 7.29102C76.7812 8.12044 76.9931 8.77441 77.4169 9.25293C77.8408 9.73145 78.4081 9.9707 79.1191 9.9707C79.8437 9.9707 80.3997 9.736 80.787 9.2666C81.179 8.7972 81.3749 8.12956 81.3749 7.26367C81.3749 6.38867 81.179 5.71419 80.787 5.24023C80.3997 4.76628 79.8437 4.5293 79.1191 4.5293ZM87.9648 4.88477C87.7688 4.73438 87.4863 4.65918 87.1171 4.65918C86.6386 4.65918 86.2376 4.88477 85.914 5.33594C85.595 5.78711 85.4355 6.40234 85.4355 7.18164V10.75H84.3144V3.75H85.4355V5.19238H85.4628C85.6223 4.7002 85.8661 4.31738 86.1943 4.04395C86.5224 3.76595 86.8893 3.62695 87.2949 3.62695C87.5865 3.62695 87.8098 3.65885 87.9648 3.72266V4.88477Z" fill="white" fill-opacity="0.9"/>
</svg>
