<svg width="66" height="11" viewBox="0 0 66 11" fill="none" xmlns="http://www.w3.org/2000/svg">
<path d="M0.542969 10.5V0.697266H3.25C6.70443 0.697266 8.43164 2.29004 8.43164 5.47559C8.43164 6.98861 7.95085 8.2054 6.98926 9.12598C6.03223 10.042 4.74935 10.5 3.14062 10.5H0.542969ZM1.69141 1.73633V9.46094H3.1543C4.43945 9.46094 5.43978 9.11686 6.15527 8.42871C6.87077 7.74056 7.22852 6.7653 7.22852 5.50293C7.22852 2.99186 5.89323 1.73633 3.22266 1.73633H1.69141ZM15.2197 10.5H14.0986V9.40625H14.0713C13.5837 10.2448 12.8659 10.6641 11.918 10.6641C11.2207 10.6641 10.6738 10.4795 10.2773 10.1104C9.88542 9.74121 9.68945 9.2513 9.68945 8.64062C9.68945 7.33268 10.4596 6.57161 12 6.35742L14.0986 6.06348C14.0986 4.87402 13.6178 4.2793 12.6562 4.2793C11.8132 4.2793 11.0521 4.56641 10.373 5.14062V3.99219C11.0612 3.55469 11.8542 3.33594 12.752 3.33594C14.3971 3.33594 15.2197 4.20638 15.2197 5.94727V10.5ZM14.0986 6.95898L12.4102 7.19141C11.8906 7.26432 11.4987 7.39421 11.2344 7.58105C10.9701 7.76335 10.8379 8.08919 10.8379 8.55859C10.8379 8.90039 10.9587 9.18066 11.2002 9.39941C11.4463 9.61361 11.7721 9.7207 12.1777 9.7207C12.7337 9.7207 13.1917 9.52702 13.5518 9.13965C13.9163 8.74772 14.0986 8.25326 14.0986 7.65625V6.95898ZM16.9082 10.2471V9.04395C17.5189 9.49512 18.1911 9.7207 18.9248 9.7207C19.9092 9.7207 20.4014 9.39258 20.4014 8.73633C20.4014 8.54948 20.3581 8.39225 20.2715 8.26465C20.1895 8.13249 20.0755 8.01628 19.9297 7.91602C19.7884 7.81576 19.6198 7.72689 19.4238 7.64941C19.2324 7.56738 19.0251 7.48307 18.8018 7.39648C18.4919 7.27344 18.2184 7.15039 17.9814 7.02734C17.749 6.89974 17.5531 6.75846 17.3936 6.60352C17.2386 6.44401 17.1201 6.264 17.0381 6.06348C16.9606 5.86296 16.9219 5.62826 16.9219 5.35938C16.9219 5.03125 16.9971 4.74186 17.1475 4.49121C17.2979 4.236 17.4984 4.02409 17.749 3.85547C17.9997 3.68229 18.2845 3.55241 18.6035 3.46582C18.9271 3.37923 19.2598 3.33594 19.6016 3.33594C20.2077 3.33594 20.75 3.44076 21.2285 3.65039V4.78516C20.7135 4.44792 20.1211 4.2793 19.4512 4.2793C19.2415 4.2793 19.0524 4.30436 18.8838 4.35449C18.7152 4.40007 18.5693 4.46615 18.4463 4.55273C18.3278 4.63932 18.2344 4.74414 18.166 4.86719C18.1022 4.98568 18.0703 5.11784 18.0703 5.26367C18.0703 5.44596 18.1022 5.59863 18.166 5.72168C18.2344 5.84473 18.3324 5.9541 18.46 6.0498C18.5876 6.14551 18.7425 6.2321 18.9248 6.30957C19.1071 6.38704 19.3145 6.47135 19.5469 6.5625C19.8568 6.68099 20.1348 6.80404 20.3809 6.93164C20.627 7.05469 20.8366 7.19596 21.0098 7.35547C21.1829 7.51042 21.3151 7.69043 21.4062 7.89551C21.502 8.10059 21.5498 8.3444 21.5498 8.62695C21.5498 8.97331 21.4723 9.27409 21.3174 9.5293C21.167 9.78451 20.9642 9.99642 20.709 10.165C20.4538 10.3337 20.1598 10.459 19.8271 10.541C19.4945 10.623 19.1458 10.6641 18.7812 10.6641C18.0612 10.6641 17.4368 10.5251 16.9082 10.2471ZM29.0898 10.5H27.9688V6.4668C27.9688 5.00846 27.4264 4.2793 26.3418 4.2793C25.7949 4.2793 25.3346 4.49121 24.9609 4.91504C24.5872 5.33431 24.4004 5.87435 24.4004 6.53516V10.5H23.2793V0.136719H24.4004V4.66211H24.4277C24.9655 3.77799 25.7311 3.33594 26.7246 3.33594C28.3014 3.33594 29.0898 4.28613 29.0898 6.18652V10.5ZM32.3574 9.48828H32.3301V10.5H31.209V0.136719H32.3301V4.73047H32.3574C32.9089 3.80078 33.7155 3.33594 34.7773 3.33594C35.6751 3.33594 36.377 3.65039 36.8828 4.2793C37.3932 4.90365 37.6484 5.74219 37.6484 6.79492C37.6484 7.96615 37.3636 8.90495 36.7939 9.61133C36.2243 10.3132 35.445 10.6641 34.4561 10.6641C33.5309 10.6641 32.8314 10.2721 32.3574 9.48828ZM32.3301 6.66504V7.64258C32.3301 8.22135 32.5169 8.71354 32.8906 9.11914C33.2689 9.52018 33.7474 9.7207 34.3262 9.7207C35.0052 9.7207 35.5361 9.46094 35.9189 8.94141C36.3063 8.42188 36.5 7.69954 36.5 6.77441C36.5 5.99512 36.32 5.38444 35.96 4.94238C35.5999 4.50033 35.1123 4.2793 34.4971 4.2793C33.8454 4.2793 33.3213 4.50716 32.9248 4.96289C32.5283 5.41406 32.3301 5.98145 32.3301 6.66504ZM42.3652 10.6641C41.3307 10.6641 40.5036 10.3382 39.8838 9.68652C39.2686 9.03027 38.9609 8.16211 38.9609 7.08203C38.9609 5.90625 39.2822 4.98796 39.9248 4.32715C40.5674 3.66634 41.4355 3.33594 42.5293 3.33594C43.5729 3.33594 44.3864 3.65723 44.9697 4.2998C45.5576 4.94238 45.8516 5.83333 45.8516 6.97266C45.8516 8.08919 45.5348 8.9847 44.9014 9.65918C44.2725 10.3291 43.4271 10.6641 42.3652 10.6641ZM42.4473 4.2793C41.7272 4.2793 41.1576 4.52539 40.7383 5.01758C40.319 5.50521 40.1094 6.17969 40.1094 7.04102C40.1094 7.87044 40.3213 8.52441 40.7451 9.00293C41.1689 9.48145 41.7363 9.7207 42.4473 9.7207C43.1719 9.7207 43.7279 9.486 44.1152 9.0166C44.5072 8.5472 44.7031 7.87956 44.7031 7.01367C44.7031 6.13867 44.5072 5.46419 44.1152 4.99023C43.7279 4.51628 43.1719 4.2793 42.4473 4.2793ZM52.6533 10.5H51.5322V9.40625H51.5049C51.0173 10.2448 50.2995 10.6641 49.3516 10.6641C48.6543 10.6641 48.1074 10.4795 47.7109 10.1104C47.319 9.74121 47.123 9.2513 47.123 8.64062C47.123 7.33268 47.8932 6.57161 49.4336 6.35742L51.5322 6.06348C51.5322 4.87402 51.0514 4.2793 50.0898 4.2793C49.2467 4.2793 48.4857 4.56641 47.8066 5.14062V3.99219C48.4948 3.55469 49.2878 3.33594 50.1855 3.33594C51.8307 3.33594 52.6533 4.20638 52.6533 5.94727V10.5ZM51.5322 6.95898L49.8438 7.19141C49.3242 7.26432 48.9323 7.39421 48.668 7.58105C48.4036 7.76335 48.2715 8.08919 48.2715 8.55859C48.2715 8.90039 48.3923 9.18066 48.6338 9.39941C48.8799 9.61361 49.2057 9.7207 49.6113 9.7207C50.1673 9.7207 50.6253 9.52702 50.9854 9.13965C51.3499 8.74772 51.5322 8.25326 51.5322 7.65625V6.95898ZM58.416 4.63477C58.2201 4.48438 57.9375 4.40918 57.5684 4.40918C57.0898 4.40918 56.6888 4.63477 56.3652 5.08594C56.0462 5.53711 55.8867 6.15234 55.8867 6.93164V10.5H54.7656V3.5H55.8867V4.94238H55.9141C56.0736 4.4502 56.3174 4.06738 56.6455 3.79395C56.9736 3.51595 57.3405 3.37695 57.7461 3.37695C58.0378 3.37695 58.2611 3.40885 58.416 3.47266V4.63477ZM65.6074 10.5H64.4863V9.31055H64.459C63.9395 10.2129 63.1374 10.6641 62.0527 10.6641C61.1732 10.6641 60.4691 10.3519 59.9404 9.72754C59.4163 9.09863 59.1543 8.24414 59.1543 7.16406C59.1543 6.00651 59.446 5.0791 60.0293 4.38184C60.6126 3.68457 61.3896 3.33594 62.3604 3.33594C63.3219 3.33594 64.0215 3.71419 64.459 4.4707H64.4863V0.136719H65.6074V10.5ZM64.4863 7.33496V6.30273C64.4863 5.73763 64.2995 5.25911 63.9258 4.86719C63.5521 4.47526 63.0781 4.2793 62.5039 4.2793C61.8203 4.2793 61.2826 4.52995 60.8906 5.03125C60.4987 5.53255 60.3027 6.22526 60.3027 7.10938C60.3027 7.91602 60.4896 8.55404 60.8633 9.02344C61.2415 9.48828 61.7474 9.7207 62.3809 9.7207C63.0052 9.7207 63.5111 9.49512 63.8984 9.04395C64.2904 8.59277 64.4863 8.02311 64.4863 7.33496Z" fill="white"/>
</svg>
