<svg width="53" height="11" viewBox="0 0 53 11" fill="none" xmlns="http://www.w3.org/2000/svg">
<path d="M10.332 10.5H9.19043V3.92383C9.19043 3.4043 9.22233 2.76855 9.28613 2.0166H9.25879C9.14941 2.45866 9.05143 2.77539 8.96484 2.9668L5.61523 10.5H5.05469L1.71191 3.02148C1.61621 2.80273 1.51823 2.46777 1.41797 2.0166H1.39062C1.42708 2.40853 1.44531 3.04883 1.44531 3.9375V10.5H0.337891V0.697266H1.85547L4.86328 7.5332C5.0957 8.05729 5.24609 8.44922 5.31445 8.70898H5.35547C5.55143 8.17122 5.70866 7.77018 5.82715 7.50586L8.89648 0.697266H10.332V10.5ZM15.6914 10.6641C14.6569 10.6641 13.8298 10.3382 13.21 9.68652C12.5947 9.03027 12.2871 8.16211 12.2871 7.08203C12.2871 5.90625 12.6084 4.98796 13.251 4.32715C13.8936 3.66634 14.7617 3.33594 15.8555 3.33594C16.8991 3.33594 17.7126 3.65723 18.2959 4.2998C18.8838 4.94238 19.1777 5.83333 19.1777 6.97266C19.1777 8.08919 18.861 8.9847 18.2275 9.65918C17.5986 10.3291 16.7533 10.6641 15.6914 10.6641ZM15.7734 4.2793C15.0534 4.2793 14.4837 4.52539 14.0645 5.01758C13.6452 5.50521 13.4355 6.17969 13.4355 7.04102C13.4355 7.87044 13.6475 8.52441 14.0713 9.00293C14.4951 9.48145 15.0625 9.7207 15.7734 9.7207C16.498 9.7207 17.054 9.486 17.4414 9.0166C17.8333 8.5472 18.0293 7.87956 18.0293 7.01367C18.0293 6.13867 17.8333 5.46419 17.4414 4.99023C17.054 4.51628 16.498 4.2793 15.7734 4.2793ZM26.9434 10.5H25.8223V9.31055H25.7949C25.2754 10.2129 24.4733 10.6641 23.3887 10.6641C22.5091 10.6641 21.805 10.3519 21.2764 9.72754C20.7523 9.09863 20.4902 8.24414 20.4902 7.16406C20.4902 6.00651 20.7819 5.0791 21.3652 4.38184C21.9486 3.68457 22.7256 3.33594 23.6963 3.33594C24.6579 3.33594 25.3574 3.71419 25.7949 4.4707H25.8223V0.136719H26.9434V10.5ZM25.8223 7.33496V6.30273C25.8223 5.73763 25.6354 5.25911 25.2617 4.86719C24.888 4.47526 24.4141 4.2793 23.8398 4.2793C23.1562 4.2793 22.6185 4.52995 22.2266 5.03125C21.8346 5.53255 21.6387 6.22526 21.6387 7.10938C21.6387 7.91602 21.8255 8.55404 22.1992 9.02344C22.5775 9.48828 23.0833 9.7207 23.7168 9.7207C24.3411 9.7207 24.847 9.49512 25.2344 9.04395C25.6263 8.59277 25.8223 8.02311 25.8223 7.33496ZM34.8389 7.28027H29.8965C29.9147 8.05957 30.1243 8.66113 30.5254 9.08496C30.9264 9.50879 31.4779 9.7207 32.1797 9.7207C32.9681 9.7207 33.6927 9.46094 34.3535 8.94141V9.99414C33.7383 10.4408 32.9248 10.6641 31.9131 10.6641C30.9242 10.6641 30.1471 10.3473 29.582 9.71387C29.0169 9.07585 28.7344 8.18034 28.7344 7.02734C28.7344 5.93815 29.042 5.05176 29.6572 4.36816C30.277 3.68001 31.0449 3.33594 31.9609 3.33594C32.877 3.33594 33.5856 3.63216 34.0869 4.22461C34.5882 4.81706 34.8389 5.63965 34.8389 6.69238V7.28027ZM33.6904 6.33008C33.6859 5.68294 33.5286 5.17936 33.2188 4.81934C32.9134 4.45931 32.4873 4.2793 31.9404 4.2793C31.4118 4.2793 30.9629 4.46842 30.5938 4.84668C30.2246 5.22493 29.9967 5.7194 29.9102 6.33008H33.6904ZM37.6621 10.5H36.541V0.136719H37.6621V10.5ZM42.8574 10.6641C41.8229 10.6641 40.9958 10.3382 40.376 9.68652C39.7607 9.03027 39.4531 8.16211 39.4531 7.08203C39.4531 5.90625 39.7744 4.98796 40.417 4.32715C41.0596 3.66634 41.9277 3.33594 43.0215 3.33594C44.0651 3.33594 44.8786 3.65723 45.4619 4.2998C46.0498 4.94238 46.3438 5.83333 46.3438 6.97266C46.3438 8.08919 46.027 8.9847 45.3936 9.65918C44.7646 10.3291 43.9193 10.6641 42.8574 10.6641ZM42.9395 4.2793C42.2194 4.2793 41.6497 4.52539 41.2305 5.01758C40.8112 5.50521 40.6016 6.17969 40.6016 7.04102C40.6016 7.87044 40.8135 8.52441 41.2373 9.00293C41.6611 9.48145 42.2285 9.7207 42.9395 9.7207C43.6641 9.7207 44.2201 9.486 44.6074 9.0166C44.9993 8.5472 45.1953 7.87956 45.1953 7.01367C45.1953 6.13867 44.9993 5.46419 44.6074 4.99023C44.2201 4.51628 43.6641 4.2793 42.9395 4.2793ZM47.7109 10.2471V9.04395C48.3216 9.49512 48.9938 9.7207 49.7275 9.7207C50.7119 9.7207 51.2041 9.39258 51.2041 8.73633C51.2041 8.54948 51.1608 8.39225 51.0742 8.26465C50.9922 8.13249 50.8783 8.01628 50.7324 7.91602C50.5911 7.81576 50.4225 7.72689 50.2266 7.64941C50.0352 7.56738 49.8278 7.48307 49.6045 7.39648C49.2946 7.27344 49.0212 7.15039 48.7842 7.02734C48.5518 6.89974 48.3558 6.75846 48.1963 6.60352C48.0413 6.44401 47.9229 6.264 47.8408 6.06348C47.7633 5.86296 47.7246 5.62826 47.7246 5.35938C47.7246 5.03125 47.7998 4.74186 47.9502 4.49121C48.1006 4.236 48.3011 4.02409 48.5518 3.85547C48.8024 3.68229 49.0872 3.55241 49.4062 3.46582C49.7298 3.37923 50.0625 3.33594 50.4043 3.33594C51.0104 3.33594 51.5527 3.44076 52.0312 3.65039V4.78516C51.5163 4.44792 50.9238 4.2793 50.2539 4.2793C50.0443 4.2793 49.8551 4.30436 49.6865 4.35449C49.5179 4.40007 49.3721 4.46615 49.249 4.55273C49.1305 4.63932 49.0371 4.74414 48.9688 4.86719C48.9049 4.98568 48.873 5.11784 48.873 5.26367C48.873 5.44596 48.9049 5.59863 48.9688 5.72168C49.0371 5.84473 49.1351 5.9541 49.2627 6.0498C49.3903 6.14551 49.5452 6.2321 49.7275 6.30957C49.9098 6.38704 50.1172 6.47135 50.3496 6.5625C50.6595 6.68099 50.9375 6.80404 51.1836 6.93164C51.4297 7.05469 51.6393 7.19596 51.8125 7.35547C51.9857 7.51042 52.1178 7.69043 52.209 7.89551C52.3047 8.10059 52.3525 8.3444 52.3525 8.62695C52.3525 8.97331 52.2751 9.27409 52.1201 9.5293C51.9697 9.78451 51.7669 9.99642 51.5117 10.165C51.2565 10.3337 50.9626 10.459 50.6299 10.541C50.2972 10.623 49.9486 10.6641 49.584 10.6641C48.8639 10.6641 48.2396 10.5251 47.7109 10.2471Z" fill="white"/>
</svg>
