<svg width="84" height="14" viewBox="0 0 84 14" fill="none" xmlns="http://www.w3.org/2000/svg">
<path d="M0.170898 10.1035V8.75C0.325846 8.88672 0.510417 9.00977 0.724609 9.11914C0.943359 9.22852 1.17122 9.32194 1.4082 9.39941C1.64974 9.47233 1.89128 9.5293 2.13281 9.57031C2.37435 9.61133 2.59766 9.63184 2.80273 9.63184C3.50911 9.63184 4.03548 9.50195 4.38184 9.24219C4.73275 8.97786 4.9082 8.59961 4.9082 8.10742C4.9082 7.8431 4.84896 7.61296 4.73047 7.41699C4.61654 7.22103 4.45703 7.04329 4.25195 6.88379C4.04688 6.71973 3.80306 6.56478 3.52051 6.41895C3.24251 6.26855 2.94173 6.11133 2.61816 5.94727C2.27637 5.77409 1.95736 5.59863 1.66113 5.4209C1.36491 5.24316 1.10742 5.0472 0.888672 4.83301C0.669922 4.61882 0.496745 4.37728 0.369141 4.1084C0.246094 3.83496 0.18457 3.51595 0.18457 3.15137C0.18457 2.70475 0.282552 2.31738 0.478516 1.98926C0.674479 1.65658 0.931966 1.38314 1.25098 1.16895C1.56999 0.954753 1.93229 0.795247 2.33789 0.69043C2.74805 0.585612 3.16504 0.533203 3.58887 0.533203C4.55501 0.533203 5.25911 0.649414 5.70117 0.881836V2.17383C5.1224 1.77279 4.37956 1.57227 3.47266 1.57227C3.22201 1.57227 2.97135 1.59961 2.7207 1.6543C2.47005 1.70443 2.24674 1.78874 2.05078 1.90723C1.85482 2.02572 1.69531 2.17839 1.57227 2.36523C1.44922 2.55208 1.3877 2.77995 1.3877 3.04883C1.3877 3.29948 1.43327 3.51595 1.52441 3.69824C1.62012 3.88053 1.75911 4.04688 1.94141 4.19727C2.1237 4.34766 2.34473 4.49349 2.60449 4.63477C2.86882 4.77604 3.17188 4.93099 3.51367 5.09961C3.86458 5.27279 4.19727 5.45508 4.51172 5.64648C4.82617 5.83789 5.10189 6.0498 5.33887 6.28223C5.57585 6.51465 5.7627 6.77214 5.89941 7.05469C6.04069 7.33724 6.11133 7.66081 6.11133 8.02539C6.11133 8.50846 6.01562 8.91862 5.82422 9.25586C5.63737 9.58854 5.38216 9.8597 5.05859 10.0693C4.73958 10.279 4.37044 10.4294 3.95117 10.5205C3.5319 10.6162 3.08984 10.6641 2.625 10.6641C2.47005 10.6641 2.27865 10.6504 2.05078 10.623C1.82292 10.6003 1.59049 10.5638 1.35352 10.5137C1.11654 10.4681 0.890951 10.4111 0.676758 10.3428C0.467122 10.2699 0.298503 10.1901 0.170898 10.1035ZM13.542 7.28027H8.59961C8.61784 8.05957 8.82747 8.66113 9.22852 9.08496C9.62956 9.50879 10.181 9.7207 10.8828 9.7207C11.6712 9.7207 12.3958 9.46094 13.0566 8.94141V9.99414C12.4414 10.4408 11.6279 10.6641 10.6162 10.6641C9.62728 10.6641 8.85026 10.3473 8.28516 9.71387C7.72005 9.07585 7.4375 8.18034 7.4375 7.02734C7.4375 5.93815 7.74512 5.05176 8.36035 4.36816C8.98014 3.68001 9.74805 3.33594 10.6641 3.33594C11.5801 3.33594 12.2887 3.63216 12.79 4.22461C13.2913 4.81706 13.542 5.63965 13.542 6.69238V7.28027ZM12.3936 6.33008C12.389 5.68294 12.2318 5.17936 11.9219 4.81934C11.6165 4.45931 11.1904 4.2793 10.6436 4.2793C10.1149 4.2793 9.66602 4.46842 9.29688 4.84668C8.92773 5.22493 8.69987 5.7194 8.61328 6.33008H12.3936ZM21.2188 9.93945C21.2188 12.5098 19.9883 13.7949 17.5273 13.7949C16.6615 13.7949 15.9049 13.6309 15.2578 13.3027V12.1816C16.0462 12.6191 16.7982 12.8379 17.5137 12.8379C19.2363 12.8379 20.0977 11.9219 20.0977 10.0898V9.32422H20.0703C19.5371 10.2174 18.735 10.6641 17.6641 10.6641C16.7936 10.6641 16.0918 10.3542 15.5586 9.73438C15.0299 9.11003 14.7656 8.27376 14.7656 7.22559C14.7656 6.03613 15.0505 5.09049 15.6201 4.38867C16.1943 3.68685 16.9782 3.33594 17.9717 3.33594C18.915 3.33594 19.6146 3.71419 20.0703 4.4707H20.0977V3.5H21.2188V9.93945ZM20.0977 7.33496V6.30273C20.0977 5.74674 19.9085 5.27051 19.5303 4.87402C19.1566 4.47754 18.6895 4.2793 18.1289 4.2793C17.4362 4.2793 16.8939 4.53223 16.502 5.03809C16.11 5.53939 15.9141 6.24349 15.9141 7.15039C15.9141 7.92969 16.1009 8.55404 16.4746 9.02344C16.8529 9.48828 17.3519 9.7207 17.9717 9.7207C18.6006 9.7207 19.111 9.4974 19.5029 9.05078C19.8994 8.60417 20.0977 8.03223 20.0977 7.33496ZM29.1484 10.5H28.0273V9.39258H28C27.5352 10.2402 26.8151 10.6641 25.8398 10.6641C24.1719 10.6641 23.3379 9.67057 23.3379 7.68359V3.5H24.4521V7.50586C24.4521 8.98242 25.0173 9.7207 26.1475 9.7207C26.6943 9.7207 27.1432 9.52018 27.4941 9.11914C27.8496 8.71354 28.0273 8.1849 28.0273 7.5332V3.5H29.1484V10.5ZM31.9922 1.72266C31.7917 1.72266 31.6208 1.6543 31.4795 1.51758C31.3382 1.38086 31.2676 1.20768 31.2676 0.998047C31.2676 0.788411 31.3382 0.615234 31.4795 0.478516C31.6208 0.33724 31.7917 0.266602 31.9922 0.266602C32.1973 0.266602 32.3704 0.33724 32.5117 0.478516C32.6576 0.615234 32.7305 0.788411 32.7305 0.998047C32.7305 1.19857 32.6576 1.36947 32.5117 1.51074C32.3704 1.65202 32.1973 1.72266 31.9922 1.72266ZM32.5391 10.5H31.418V3.5H32.5391V10.5ZM40.4346 7.28027H35.4922C35.5104 8.05957 35.7201 8.66113 36.1211 9.08496C36.5221 9.50879 37.0736 9.7207 37.7754 9.7207C38.5638 9.7207 39.2884 9.46094 39.9492 8.94141V9.99414C39.334 10.4408 38.5205 10.6641 37.5088 10.6641C36.5199 10.6641 35.7428 10.3473 35.1777 9.71387C34.6126 9.07585 34.3301 8.18034 34.3301 7.02734C34.3301 5.93815 34.6377 5.05176 35.2529 4.36816C35.8727 3.68001 36.6406 3.33594 37.5566 3.33594C38.4727 3.33594 39.1813 3.63216 39.6826 4.22461C40.1839 4.81706 40.4346 5.63965 40.4346 6.69238V7.28027ZM39.2861 6.33008C39.2816 5.68294 39.1243 5.17936 38.8145 4.81934C38.5091 4.45931 38.083 4.2793 37.5361 4.2793C37.0075 4.2793 36.5586 4.46842 36.1895 4.84668C35.8203 5.22493 35.5924 5.7194 35.5059 6.33008H39.2861ZM52.0762 10.5H50.9551V6.48047C50.9551 5.70573 50.8343 5.14518 50.5928 4.79883C50.3558 4.45247 49.9548 4.2793 49.3896 4.2793C48.9111 4.2793 48.5033 4.49805 48.166 4.93555C47.8333 5.37305 47.667 5.89714 47.667 6.50781V10.5H46.5459V6.34375C46.5459 4.96745 46.015 4.2793 44.9531 4.2793C44.4609 4.2793 44.0553 4.48665 43.7363 4.90137C43.4173 5.31152 43.2578 5.84701 43.2578 6.50781V10.5H42.1367V3.5H43.2578V4.60742H43.2852C43.7819 3.75977 44.5065 3.33594 45.459 3.33594C45.9375 3.33594 46.3545 3.47038 46.71 3.73926C47.0654 4.00358 47.3092 4.35221 47.4414 4.78516C47.9609 3.81901 48.7357 3.33594 49.7656 3.33594C51.306 3.33594 52.0762 4.28613 52.0762 6.18652V10.5ZM54.7695 1.72266C54.569 1.72266 54.3981 1.6543 54.2568 1.51758C54.1156 1.38086 54.0449 1.20768 54.0449 0.998047C54.0449 0.788411 54.1156 0.615234 54.2568 0.478516C54.3981 0.33724 54.569 0.266602 54.7695 0.266602C54.9746 0.266602 55.1478 0.33724 55.2891 0.478516C55.4349 0.615234 55.5078 0.788411 55.5078 0.998047C55.5078 1.19857 55.4349 1.36947 55.2891 1.51074C55.1478 1.65202 54.9746 1.72266 54.7695 1.72266ZM55.3164 10.5H54.1953V3.5H55.3164V10.5ZM63.2119 7.28027H58.2695C58.2878 8.05957 58.4974 8.66113 58.8984 9.08496C59.2995 9.50879 59.8509 9.7207 60.5527 9.7207C61.3411 9.7207 62.0658 9.46094 62.7266 8.94141V9.99414C62.1113 10.4408 61.2979 10.6641 60.2861 10.6641C59.2972 10.6641 58.5202 10.3473 57.9551 9.71387C57.39 9.07585 57.1074 8.18034 57.1074 7.02734C57.1074 5.93815 57.415 5.05176 58.0303 4.36816C58.6501 3.68001 59.418 3.33594 60.334 3.33594C61.25 3.33594 61.9587 3.63216 62.46 4.22461C62.9613 4.81706 63.2119 5.63965 63.2119 6.69238V7.28027ZM62.0635 6.33008C62.0589 5.68294 61.9017 5.17936 61.5918 4.81934C61.2865 4.45931 60.8604 4.2793 60.3135 4.2793C59.7848 4.2793 59.3359 4.46842 58.9668 4.84668C58.5977 5.22493 58.3698 5.7194 58.2832 6.33008H62.0635ZM70.7246 10.5H69.6035V6.50781C69.6035 5.02214 69.0612 4.2793 67.9766 4.2793C67.416 4.2793 66.9512 4.49121 66.582 4.91504C66.2174 5.33431 66.0352 5.86523 66.0352 6.50781V10.5H64.9141V3.5H66.0352V4.66211H66.0625C66.5911 3.77799 67.3568 3.33594 68.3594 3.33594C69.125 3.33594 69.7106 3.58431 70.1162 4.08105C70.5218 4.57324 70.7246 5.28646 70.7246 6.2207V10.5ZM76.0908 10.4316C75.8265 10.5775 75.4779 10.6504 75.0449 10.6504C73.819 10.6504 73.2061 9.9668 73.2061 8.59961V4.45703H72.0029V3.5H73.2061V1.79102L74.3271 1.42871V3.5H76.0908V4.45703H74.3271V8.40137C74.3271 8.87077 74.4069 9.20573 74.5664 9.40625C74.7259 9.60677 74.9902 9.70703 75.3594 9.70703C75.6419 9.70703 75.8857 9.62956 76.0908 9.47461V10.4316ZM80.5137 10.6641C79.4792 10.6641 78.652 10.3382 78.0322 9.68652C77.417 9.03027 77.1094 8.16211 77.1094 7.08203C77.1094 5.90625 77.4307 4.98796 78.0732 4.32715C78.7158 3.66634 79.584 3.33594 80.6777 3.33594C81.7214 3.33594 82.5348 3.65723 83.1182 4.2998C83.7061 4.94238 84 5.83333 84 6.97266C84 8.08919 83.6833 8.9847 83.0498 9.65918C82.4209 10.3291 81.5755 10.6641 80.5137 10.6641ZM80.5957 4.2793C79.8757 4.2793 79.306 4.52539 78.8867 5.01758C78.4674 5.50521 78.2578 6.17969 78.2578 7.04102C78.2578 7.87044 78.4697 8.52441 78.8936 9.00293C79.3174 9.48145 79.8848 9.7207 80.5957 9.7207C81.3203 9.7207 81.8763 9.486 82.2637 9.0166C82.6556 8.5472 82.8516 7.87956 82.8516 7.01367C82.8516 6.13867 82.6556 5.46419 82.2637 4.99023C81.8763 4.51628 81.3203 4.2793 80.5957 4.2793Z" fill="white"/>
</svg>
